<svg version="1.1" preserveAspectRatio="none" xmlns="http://www.w3.org/2000/svg" width="500" height="500" viewBox="0 0 500 500"><rect width="100%" height="100%" fill="#14051E" fill-opacity="1"/><svg viewBox="60.7689 169.9258 363.9773 302.3773" width="333" height="276.6426392525028" x="83.5px" y="111.6787px" xmlns="http://www.w3.org/2000/svg" xmlns:xlink="http://www.w3.org/1999/xlink" preserveAspectRatio="none"><defs></defs><style>.a6izo4zJpcolor {fill:#D6C7F4;fill-opacity:1;}.aD6z1nYkhcolor {fill:#D6C7F4;fill-opacity:1;}.icon1 {fill:#907DB3;fill-opacity:1;}.icon2 {fill:#D6C7F4;fill-opacity:1;}.icon3 {fill:#6A588A;fill-opacity:1;}.icon3-str {stroke:#6A588A;stroke-opacity:1;}</style><g opacity="1" transform="rotate(0 60.7689 449.8031)">
<svg width="363.9773" height="22.5" x="60.7689" y="449.8031" version="1.1" preserveAspectRatio="none" viewBox="0.16 -29.68 483.96 29.92">
  <g transform="matrix(1 0 0 1 0 0)" class="a6izo4zJpcolor"><path id="id-6izo4zJp23" d="M10 0L10-25.44L0.16-25.44L0.16-28L22.80-28L22.80-25.44L12.96-25.44L12.96 0L10 0Z M29.08-16.92Q30.08-19.04 32.06-20.12Q34.04-21.20 36.96-21.20L36.96-21.20L36.96-18.44L36.28-18.48Q32.96-18.48 31.08-16.44Q29.20-14.40 29.20-10.72L29.20-10.72L29.20 0L26.36 0L26.36-21.04L29.08-21.04L29.08-16.92Z M49.40-21.20Q53.52-21.20 55.72-19.14Q57.92-17.08 57.92-13.04L57.92-13.04L57.92 0L55.20 0L55.20-3.28Q54.24-1.64 52.38-0.72Q50.52 0.20 47.96 0.20L47.96 0.20Q44.44 0.20 42.36-1.48Q40.28-3.16 40.28-5.92L40.28-5.92Q40.28-8.60 42.22-10.24Q44.16-11.88 48.40-11.88L48.40-11.88L55.08-11.88L55.08-13.16Q55.08-15.88 53.56-17.30Q52.04-18.72 49.12-18.72L49.12-18.72Q47.12-18.72 45.28-18.06Q43.44-17.40 42.12-16.24L42.12-16.24L40.84-18.36Q42.44-19.72 44.68-20.46Q46.92-21.20 49.40-21.20L49.40-21.20ZM48.40-2.04Q50.80-2.04 52.52-3.14Q54.24-4.24 55.08-6.32L55.08-6.32L55.08-9.76L48.48-9.76Q43.08-9.76 43.08-6L43.08-6Q43.08-4.16 44.48-3.10Q45.88-2.04 48.40-2.04L48.40-2.04Z M74.44 0.20Q71.32 0.20 68.86-1.16Q66.40-2.52 65-4.98Q63.60-7.44 63.60-10.52L63.60-10.52Q63.60-13.60 65-16.04Q66.40-18.48 68.86-19.84Q71.32-21.20 74.44-21.20L74.44-21.20Q77.16-21.20 79.30-20.14Q81.44-19.08 82.68-17.04L82.68-17.04L80.56-15.60Q79.52-17.16 77.92-17.94Q76.32-18.72 74.44-18.72L74.44-18.72Q72.16-18.72 70.34-17.70Q68.52-16.68 67.50-14.80Q66.48-12.92 66.48-10.52L66.48-10.52Q66.48-8.08 67.50-6.22Q68.52-4.36 70.34-3.34Q72.16-2.32 74.44-2.32L74.44-2.32Q76.32-2.32 77.92-3.08Q79.52-3.84 80.56-5.40L80.56-5.40L82.68-3.96Q81.44-1.92 79.28-0.86Q77.12 0.20 74.44 0.20L74.44 0.20Z M104.20 0L95.72-10.56L90.76-6L90.76 0L87.92 0L87.92-29.68L90.76-29.68L90.76-9.56L103.32-21.04L106.84-21.04L97.84-12.44L107.68 0L104.20 0Z M143.84-28L132.64-9.68L132.64 0L129.72 0L129.72-9.68L118.52-28L121.68-28L131.28-12.28L140.88-28L143.84-28Z M154.04 0.20Q151 0.20 148.56-1.18Q146.12-2.56 144.72-5Q143.32-7.44 143.32-10.52L143.32-10.52Q143.32-13.60 144.72-16.04Q146.12-18.48 148.56-19.84Q151-21.20 154.04-21.20L154.04-21.20Q157.08-21.20 159.52-19.84Q161.96-18.48 163.34-16.04Q164.72-13.60 164.72-10.52L164.72-10.52Q164.72-7.44 163.34-5Q161.96-2.56 159.52-1.18Q157.08 0.20 154.04 0.20L154.04 0.20ZM154.04-2.32Q156.28-2.32 158.06-3.34Q159.84-4.36 160.84-6.24Q161.84-8.12 161.84-10.52L161.84-10.52Q161.84-12.92 160.84-14.80Q159.84-16.68 158.06-17.70Q156.28-18.72 154.04-18.72L154.04-18.72Q151.80-18.72 150.02-17.70Q148.24-16.68 147.22-14.80Q146.20-12.92 146.20-10.52L146.20-10.52Q146.20-8.12 147.22-6.24Q148.24-4.36 150.02-3.34Q151.80-2.32 154.04-2.32L154.04-2.32Z M186.64-21.04L189.48-21.04L189.48 0L186.76 0L186.76-3.84Q185.64-1.92 183.68-0.86Q181.72 0.20 179.20 0.20L179.20 0.20Q175.08 0.20 172.70-2.10Q170.32-4.40 170.32-8.84L170.32-8.84L170.32-21.04L173.16-21.04L173.16-9.12Q173.16-5.80 174.80-4.08Q176.44-2.36 179.48-2.36L179.48-2.36Q182.80-2.36 184.72-4.38Q186.64-6.40 186.64-10L186.64-10L186.64-21.04Z M200.16-16.92Q201.16-19.04 203.14-20.12Q205.12-21.20 208.04-21.20L208.04-21.20L208.04-18.44L207.36-18.48Q204.04-18.48 202.16-16.44Q200.28-14.40 200.28-10.72L200.28-10.72L200.28 0L197.44 0L197.44-21.04L200.16-21.04L200.16-16.92Z M232.28 0.24Q229.16 0.24 226.30-0.76Q223.44-1.76 221.88-3.40L221.88-3.40L223.04-5.68Q224.56-4.16 227.08-3.22Q229.60-2.28 232.28-2.28L232.28-2.28Q236.04-2.28 237.92-3.66Q239.80-5.04 239.80-7.24L239.80-7.24Q239.80-8.92 238.78-9.92Q237.76-10.92 236.28-11.46Q234.80-12 232.16-12.64L232.16-12.64Q229-13.44 227.12-14.18Q225.24-14.92 223.90-16.44Q222.56-17.96 222.56-20.56L222.56-20.56Q222.56-22.68 223.68-24.42Q224.80-26.16 227.12-27.20Q229.44-28.24 232.88-28.24L232.88-28.24Q235.28-28.24 237.58-27.58Q239.88-26.92 241.56-25.76L241.56-25.76L240.56-23.40Q238.80-24.56 236.80-25.14Q234.80-25.72 232.88-25.72L232.88-25.72Q229.20-25.72 227.34-24.30Q225.48-22.88 225.48-20.64L225.48-20.64Q225.48-18.96 226.50-17.94Q227.52-16.92 229.06-16.38Q230.60-15.84 233.20-15.20L233.20-15.20Q236.28-14.44 238.18-13.70Q240.08-12.96 241.40-11.46Q242.72-9.96 242.72-7.40L242.72-7.40Q242.72-5.28 241.58-3.54Q240.44-1.80 238.08-0.78Q235.72 0.24 232.28 0.24L232.28 0.24Z M264.68-21.04L267.52-21.04L267.52 0L264.80 0L264.80-3.84Q263.68-1.92 261.72-0.86Q259.76 0.20 257.24 0.20L257.24 0.20Q253.12 0.20 250.74-2.10Q248.36-4.40 248.36-8.84L248.36-8.84L248.36-21.04L251.20-21.04L251.20-9.12Q251.20-5.80 252.84-4.08Q254.48-2.36 257.52-2.36L257.52-2.36Q260.84-2.36 262.76-4.38Q264.68-6.40 264.68-10L264.68-10L264.68-21.04Z M284.20 0.20Q281.08 0.20 278.62-1.16Q276.16-2.52 274.76-4.98Q273.36-7.44 273.36-10.52L273.36-10.52Q273.36-13.60 274.76-16.04Q276.16-18.48 278.62-19.84Q281.08-21.20 284.20-21.20L284.20-21.20Q286.92-21.20 289.06-20.14Q291.20-19.08 292.44-17.04L292.44-17.04L290.32-15.60Q289.28-17.16 287.68-17.94Q286.08-18.72 284.20-18.72L284.20-18.72Q281.92-18.72 280.10-17.70Q278.28-16.68 277.26-14.80Q276.24-12.92 276.24-10.52L276.24-10.52Q276.24-8.08 277.26-6.22Q278.28-4.36 280.10-3.34Q281.92-2.32 284.20-2.32L284.20-2.32Q286.08-2.32 287.68-3.08Q289.28-3.84 290.32-5.40L290.32-5.40L292.44-3.96Q291.20-1.92 289.04-0.86Q286.88 0.20 284.20 0.20L284.20 0.20Z M306.36 0.20Q303.24 0.20 300.78-1.16Q298.32-2.52 296.92-4.98Q295.52-7.44 295.52-10.52L295.52-10.52Q295.52-13.60 296.92-16.04Q298.32-18.48 300.78-19.84Q303.24-21.20 306.36-21.20L306.36-21.20Q309.08-21.20 311.22-20.14Q313.36-19.08 314.60-17.04L314.60-17.04L312.48-15.60Q311.44-17.16 309.84-17.94Q308.24-18.72 306.36-18.72L306.36-18.72Q304.08-18.72 302.26-17.70Q300.44-16.68 299.42-14.80Q298.40-12.92 298.40-10.52L298.40-10.52Q298.40-8.08 299.42-6.22Q300.44-4.36 302.26-3.34Q304.08-2.32 306.36-2.32L306.36-2.32Q308.24-2.32 309.84-3.08Q311.44-3.84 312.48-5.40L312.48-5.40L314.60-3.96Q313.36-1.92 311.20-0.86Q309.04 0.20 306.36 0.20L306.36 0.20Z M338.16-10.52L338.12-9.64L320.52-9.64Q320.76-6.36 323.04-4.34Q325.32-2.32 328.80-2.32L328.80-2.32Q330.76-2.32 332.40-3.02Q334.04-3.72 335.24-5.08L335.24-5.08L336.84-3.24Q335.44-1.56 333.34-0.68Q331.24 0.20 328.72 0.20L328.72 0.20Q325.48 0.20 322.98-1.18Q320.48-2.56 319.08-5Q317.68-7.44 317.68-10.52L317.68-10.52Q317.68-13.60 319.02-16.04Q320.36-18.48 322.70-19.84Q325.04-21.20 327.96-21.20L327.96-21.20Q330.88-21.20 333.20-19.84Q335.52-18.48 336.84-16.06Q338.16-13.64 338.16-10.52L338.16-10.52ZM327.96-18.76Q324.92-18.76 322.86-16.82Q320.80-14.88 320.52-11.76L320.52-11.76L335.44-11.76Q335.16-14.88 333.10-16.82Q331.04-18.76 327.96-18.76L327.96-18.76Z M349.60 0.20Q347.04 0.20 344.70-0.54Q342.36-1.28 341.04-2.40L341.04-2.40L342.32-4.64Q343.64-3.60 345.64-2.94Q347.64-2.28 349.80-2.28L349.80-2.28Q352.68-2.28 354.06-3.18Q355.44-4.08 355.44-5.72L355.44-5.72Q355.44-6.88 354.68-7.54Q353.92-8.20 352.76-8.54Q351.60-8.88 349.68-9.20L349.68-9.20Q347.12-9.68 345.56-10.18Q344.00-10.68 342.90-11.88Q341.80-13.08 341.80-15.20L341.80-15.20Q341.80-17.84 344.00-19.52Q346.20-21.20 350.12-21.20L350.12-21.20Q352.16-21.20 354.20-20.66Q356.24-20.12 357.56-19.24L357.56-19.24L356.32-16.96Q353.72-18.76 350.12-18.76L350.12-18.76Q347.40-18.76 346.02-17.80Q344.64-16.84 344.64-15.28L344.64-15.28Q344.64-14.08 345.42-13.36Q346.20-12.64 347.36-12.30Q348.52-11.96 350.56-11.60L350.56-11.60Q353.08-11.12 354.60-10.64Q356.12-10.16 357.20-9Q358.28-7.84 358.28-5.80L358.28-5.80Q358.28-3.04 355.98-1.42Q353.68 0.20 349.60 0.20L349.60 0.20Z M369.16 0.20Q366.60 0.20 364.26-0.54Q361.92-1.28 360.60-2.40L360.60-2.40L361.88-4.64Q363.20-3.60 365.20-2.94Q367.20-2.28 369.36-2.28L369.36-2.28Q372.24-2.28 373.62-3.18Q375.00-4.08 375.00-5.72L375.00-5.72Q375.00-6.88 374.24-7.54Q373.48-8.20 372.32-8.54Q371.16-8.88 369.24-9.20L369.24-9.20Q366.68-9.68 365.12-10.18Q363.56-10.68 362.46-11.88Q361.36-13.08 361.36-15.20L361.36-15.20Q361.36-17.84 363.56-19.52Q365.76-21.20 369.68-21.20L369.68-21.20Q371.72-21.20 373.76-20.66Q375.80-20.12 377.12-19.24L377.12-19.24L375.88-16.96Q373.28-18.76 369.68-18.76L369.68-18.76Q366.96-18.76 365.58-17.80Q364.20-16.84 364.20-15.28L364.20-15.28Q364.20-14.08 364.98-13.36Q365.76-12.64 366.92-12.30Q368.08-11.96 370.12-11.60L370.12-11.60Q372.64-11.12 374.16-10.64Q375.68-10.16 376.76-9Q377.84-7.84 377.84-5.80L377.84-5.80Q377.84-3.04 375.54-1.42Q373.24 0.20 369.16 0.20L369.16 0.20Z M414.64-28L417.56-28L417.56 0L414.64 0L414.64-12.92L397.12-12.92L397.12 0L394.16 0L394.16-28L397.12-28L397.12-15.52L414.64-15.52L414.64-28Z M444.44-10.52L444.40-9.64L426.80-9.64Q427.04-6.36 429.32-4.34Q431.60-2.32 435.08-2.32L435.08-2.32Q437.04-2.32 438.68-3.02Q440.32-3.72 441.52-5.08L441.52-5.08L443.12-3.24Q441.72-1.56 439.62-0.68Q437.52 0.20 435.00 0.20L435.00 0.20Q431.76 0.20 429.26-1.18Q426.76-2.56 425.36-5Q423.96-7.44 423.96-10.52L423.96-10.52Q423.96-13.60 425.30-16.04Q426.64-18.48 428.98-19.84Q431.32-21.20 434.24-21.20L434.24-21.20Q437.16-21.20 439.48-19.84Q441.80-18.48 443.12-16.06Q444.44-13.64 444.44-10.52L444.44-10.52ZM434.24-18.76Q431.20-18.76 429.14-16.82Q427.08-14.88 426.80-11.76L426.80-11.76L441.72-11.76Q441.44-14.88 439.38-16.82Q437.32-18.76 434.24-18.76L434.24-18.76Z M452.96-16.92Q453.96-19.04 455.94-20.12Q457.92-21.20 460.84-21.20L460.84-21.20L460.84-18.44L460.16-18.48Q456.84-18.48 454.96-16.44Q453.08-14.40 453.08-10.72L453.08-10.72L453.08 0L450.24 0L450.24-21.04L452.96-21.04L452.96-16.92Z M484.12-10.52L484.08-9.64L466.48-9.64Q466.72-6.36 469-4.34Q471.28-2.32 474.76-2.32L474.76-2.32Q476.72-2.32 478.36-3.02Q480-3.72 481.20-5.08L481.20-5.08L482.80-3.24Q481.40-1.56 479.30-0.68Q477.20 0.20 474.68 0.20L474.68 0.20Q471.44 0.20 468.94-1.18Q466.44-2.56 465.04-5Q463.64-7.44 463.64-10.52L463.64-10.52Q463.64-13.60 464.98-16.04Q466.32-18.48 468.66-19.84Q471-21.20 473.92-21.20L473.92-21.20Q476.84-21.20 479.16-19.84Q481.48-18.48 482.80-16.06Q484.12-13.64 484.12-10.52L484.12-10.52ZM473.92-18.76Q470.88-18.76 468.82-16.82Q466.76-14.88 466.48-11.76L466.48-11.76L481.40-11.76Q481.12-14.88 479.06-16.82Q477-18.76 473.92-18.76L473.92-18.76Z"/></g>
</svg>
</g><g opacity="1" transform="rotate(0 64.8803 377.8031)">
<svg width="355.7545" height="50" x="64.8803" y="377.8031" version="1.1" preserveAspectRatio="none" viewBox="2.8 -29.68 215.16 30.240000000000002">
  <g transform="matrix(1 0 0 1 0 0)" class="aD6z1nYkhcolor"><path id="id-D6z1nYkh8" d="M35.36 0L28.08 0L28-14.84L20.80-2.76L17.28-2.76L10.12-14.44L10.12 0L2.80 0L2.80-28L9.32-28L19.16-11.84L28.76-28L35.28-28L35.36 0Z M61.92 0L59.72-5.44L47.88-5.44L45.68 0L37.60 0L49.96-28L57.76-28L70.16 0L61.92 0ZM50.20-11.28L57.40-11.28L53.80-20.24L50.20-11.28Z M85.96 0.56Q81.56 0.56 78.06-1.30Q74.56-3.16 72.56-6.48Q70.56-9.80 70.56-14L70.56-14Q70.56-18.20 72.56-21.52Q74.56-24.84 78.06-26.70Q81.56-28.56 85.96-28.56L85.96-28.56Q89.80-28.56 92.88-27.20Q95.96-25.84 98-23.28L98-23.28L92.96-18.72Q90.24-22 86.36-22L86.36-22Q84.08-22 82.30-21Q80.52-20 79.54-18.18Q78.56-16.36 78.56-14L78.56-14Q78.56-11.64 79.54-9.82Q80.52-8 82.30-7Q84.08-6 86.36-6L86.36-6Q90.24-6 92.96-9.28L92.96-9.28L98-4.72Q95.96-2.16 92.88-0.80Q89.80 0.56 85.96 0.56L85.96 0.56Z M107.24 0L107.24-21.72L98.64-21.72L98.64-28L123.72-28L123.72-21.72L115.16-21.72L115.16 0L107.24 0Z M133.12-19.08Q134.28-20.56 136.14-21.30Q138-22.04 140.40-22.04L140.40-22.04L140.40-15.20Q139.36-15.32 138.68-15.32L138.68-15.32Q136.24-15.32 134.86-14Q133.48-12.68 133.48-9.96L133.48-9.96L133.48 0L125.88 0L125.88-21.68L133.12-21.68L133.12-19.08Z M152.60-22.04Q158.00-22.04 160.84-19.58Q163.68-17.12 163.68-12.04L163.68-12.04L163.68 0L156.60 0L156.60-2.80Q154.96 0.36 150.20 0.36L150.20 0.36Q147.68 0.36 145.84-0.52Q144.00-1.40 143.06-2.90Q142.12-4.40 142.12-6.32L142.12-6.32Q142.12-9.40 144.48-11.10Q146.84-12.80 151.76-12.80L151.76-12.80L156.08-12.80Q155.88-16.24 151.48-16.24L151.48-16.24Q149.92-16.24 148.32-15.74Q146.72-15.24 145.60-14.36L145.60-14.36L143.04-19.52Q144.84-20.72 147.42-21.38Q150.00-22.04 152.60-22.04L152.60-22.04ZM152.32-4.44Q153.64-4.44 154.64-5.08Q155.64-5.72 156.08-6.96L156.08-6.96L156.08-8.84L152.80-8.84Q149.48-8.84 149.48-6.64L149.48-6.64Q149.48-5.64 150.24-5.04Q151.00-4.44 152.32-4.44L152.32-4.44Z M179.88 0.36Q176.28 0.36 173.44-1.08Q170.60-2.52 169.02-5.08Q167.44-7.64 167.44-10.88L167.44-10.88Q167.44-14.12 169.02-16.66Q170.60-19.20 173.44-20.62Q176.28-22.04 179.88-22.04L179.88-22.04Q183.56-22.04 186.24-20.46Q188.92-18.88 190.04-16.08L190.04-16.08L184.16-13.08Q182.68-16 179.84-16L179.84-16Q177.80-16 176.46-14.64Q175.12-13.28 175.12-10.88L175.12-10.88Q175.12-8.44 176.46-7.06Q177.80-5.68 179.84-5.68L179.84-5.68Q182.68-5.68 184.16-8.60L184.16-8.60L190.04-5.60Q188.92-2.80 186.24-1.22Q183.56 0.36 179.88 0.36L179.88 0.36Z M208.76 0L202.68-7.60L200.44-5.32L200.44 0L192.84 0L192.84-29.68L200.44-29.68L200.44-14.12L208.20-21.68L217.20-21.68L208.20-12.40L217.96 0L208.76 0Z"/></g>
</svg>
</g><g opacity="1" transform="rotate(0 153.819 169.9258)">
<svg width="177.8772" height="177.8773" x="153.819" y="169.9258" version="1.1" preserveAspectRatio="none" viewBox="5 5 90 90">
  <g transform="matrix(1 0 0 1 0 0)" class="icon1"><path d="M90.909,70.455l-22.5-22.5l10.227-10.227l4.091-4.091l4.089-4.089c4.52-4.52,4.519-11.847-0.001-16.365  c-4.519-4.517-11.844-4.517-16.362,0.001l-4.089,4.089l-4.091,4.091L52.045,31.591l-22.5-22.5L25.454,5l-4.091,4.091L9.091,21.364  L5,25.454l4.091,4.091l5.113,5.113l2.046,2.046l6.136,6.136l2.046,2.045l6.136,6.136l1.023,1.023L21.364,62.273l-3.358,3.887  c-1.406,1.628-2.48,3.516-3.16,5.556l-3.061,9.182L8.125,91.875l10.977-3.659l9.182-3.06c2.041-0.68,3.929-1.754,5.557-3.161  l3.887-3.358l10.227-10.227l1.023,1.023l6.136,6.136l2.045,2.046l6.136,6.136l2.046,2.046l5.113,5.113L74.546,95l4.091-4.091  l12.273-12.273L95,74.546L90.909,70.455z M74.546,17.273c2.259-2.26,5.922-2.26,8.182,0c2.26,2.259,2.26,5.922,0,8.182l-4.091,4.091  l-8.182-8.182L74.546,17.273z M66.363,25.454l0.171,0.171l8.011,8.011L64.318,43.864l-8.182-8.182L66.363,25.454z M17.272,82.728  l4.091-12.273l8.182,8.182L17.272,82.728z M33.636,74.546l-8.182-8.182l10.227-10.227l3.068,3.068l2.045,2.045l3.068,3.068  L33.636,74.546z M74.546,86.818l-5.114-5.114l8.182-8.182l-2.046-2.046l-8.182,8.182l-6.136-6.136l4.091-4.091l-2.046-2.046  l-4.091,4.091l-6.136-6.136l4.091-4.091l-2.045-2.045l-4.091,4.091l-6.136-6.136l8.182-8.182l-2.045-2.045l-8.182,8.182  l-6.136-6.136l4.091-4.091l-2.045-2.045l-4.091,4.091l-6.136-6.136l4.091-4.091l-2.046-2.046l-4.091,4.091l-6.136-6.136l8.182-8.182  l-2.046-2.046l-8.182,8.182l-5.114-5.114l12.273-12.272l61.363,61.363L74.546,86.818z"></path></g>
</svg>
</g></svg></svg>